<svg width="130" height="83" viewBox="0 0 130 83" fill="none" xmlns="http://www.w3.org/2000/svg">
<path d="M129.948 0H0V82.8796H129.948V0Z" fill="#001609"/>
<path d="M130 82.8796H0V0H129.948V82.8796H130ZM4.18848 78.6911H125.759V4.18848H4.18848V78.6911Z" fill="#E4DEAE"/>
<path d="M32.4936 52.3906H30.209V62.5572H37.5198V60.958H32.4936V52.3906Z" fill="#E4DEAE"/>
<path d="M45.0585 62.5572H47.3432V58.6733L51.9124 52.5049H49.8563C49.6278 52.5049 49.5136 52.5049 49.3993 52.6191C49.2851 52.7333 49.1709 52.8476 49.1709 52.8476L46.8862 56.2745C46.772 56.503 46.6578 56.6172 46.5435 56.8456C46.4293 57.0741 46.3151 57.1883 46.3151 57.4168C46.2009 57.1883 46.0866 57.0741 46.0866 56.8456C45.9724 56.6172 45.8582 56.503 45.7439 56.2745L43.4593 52.8476C43.3451 52.7333 43.2308 52.6191 43.1166 52.5049C43.0024 52.3906 42.7739 52.3906 42.6597 52.3906H40.6035L45.1728 58.5591V62.5572H45.0585Z" fill="#E4DEAE"/>
<path d="M57.3966 62.5572H59.6812V53.9899H63.5651V52.3906H53.627V53.9899H57.3966V62.5572Z" fill="#E4DEAE"/>
<path d="M72.1313 52.3906H69.7324V62.5572H72.1313V52.3906Z" fill="#E4DEAE"/>
<path d="M79.5563 61.1874C80.1274 61.6443 80.8128 61.987 81.4982 62.2155C82.2978 62.4439 83.2117 62.5582 84.0113 62.5582C84.9251 62.5582 85.839 62.4439 86.6386 62.1012C87.324 61.8728 88.0094 61.4158 88.5805 60.9589L87.6667 60.1593C87.5525 60.0451 87.4382 60.0451 87.324 60.0451C87.2098 60.0451 87.2098 60.0451 87.0955 60.0451C86.9813 60.0451 86.9813 60.1593 86.8671 60.1593C86.6386 60.2735 86.5244 60.3878 86.2959 60.502C86.0675 60.6162 85.9532 60.7305 85.7248 60.7305C85.4963 60.8447 85.2678 60.8447 85.0394 60.8447C84.8109 60.8447 84.4682 60.8447 84.1255 60.8447C83.6686 60.8447 83.0974 60.7305 82.6405 60.6162C82.1836 60.502 81.7267 60.2735 81.384 59.9308C81.0413 59.5881 80.6986 59.2455 80.5844 58.7885C80.3559 58.3316 80.2417 57.7604 80.2417 57.3035C80.2417 56.8466 80.3559 56.2754 80.4701 55.8185C80.6986 55.3616 80.927 55.0189 81.2697 54.6762C81.6124 54.3335 82.0694 54.105 82.5263 53.9908C82.9832 53.7624 83.5544 53.7624 84.0113 53.7624C84.2398 53.7624 84.5825 53.7624 84.9251 53.8766C85.1536 53.8766 85.3821 53.9908 85.6105 53.9908C85.839 53.9908 85.9532 54.105 86.0675 54.2193C86.1817 54.3335 86.2959 54.3335 86.4102 54.4477C86.5244 54.562 86.6386 54.562 86.7528 54.562C86.8671 54.562 86.9813 54.6762 86.9813 54.6762C87.0955 54.6762 87.2098 54.6762 87.324 54.562C87.4382 54.562 87.4382 54.4477 87.5525 54.4477L88.3521 53.5339C87.7809 53.077 87.2098 52.7343 86.5244 52.62C85.7248 52.3916 84.9251 52.2773 84.1255 52.2773C83.2117 52.2773 82.4121 52.3916 81.6124 52.62C80.9271 52.8485 80.2417 53.1912 79.6705 53.6481C79.0993 54.105 78.7567 54.6762 78.414 55.2474C78.0713 55.9327 77.957 56.6181 77.957 57.3035C77.957 57.9889 78.0713 58.6743 78.414 59.3597C78.6424 60.1593 78.9851 60.7305 79.5563 61.1874Z" fill="#E4DEAE"/>
<path d="M96.5777 60.7295C96.1208 60.958 95.5497 61.1864 94.9785 61.0722C94.6358 61.0722 94.1789 61.0722 93.8362 60.958C93.6077 60.8437 93.265 60.7295 93.0366 60.6153C92.8081 60.5011 92.5797 60.3868 92.4654 60.2726C92.3512 60.1584 92.1227 60.1584 92.0085 60.1584C91.78 60.1584 91.6658 60.2726 91.4373 60.3868L90.752 61.3007C90.9804 61.5291 91.3231 61.6434 91.5516 61.8718C91.8943 62.1003 92.237 62.2145 92.5797 62.3288C92.9223 62.443 93.3793 62.5572 93.722 62.5572C94.0647 62.6714 94.5216 62.6714 94.8643 62.6714C95.5497 62.6714 96.1208 62.5572 96.692 62.443C97.1489 62.3288 97.6058 62.1003 98.0628 61.7576C98.4055 61.5291 98.7482 61.0722 98.9766 60.7295C99.2051 60.3868 99.3193 59.9299 99.3193 59.473C99.3193 59.1303 99.2051 58.6733 99.0908 58.4449C98.9766 58.1022 98.7482 57.8737 98.4055 57.6453C98.177 57.4168 97.8343 57.3026 97.4916 57.1883C97.1489 57.0741 96.8062 56.9599 96.4635 56.8456C96.1208 56.7314 95.7781 56.6172 95.4354 56.6172C95.0927 56.503 94.75 56.3887 94.5216 56.2745C94.2931 56.1603 94.0647 56.046 93.8362 55.8176C93.722 55.7033 93.6077 55.4749 93.6077 55.2464C93.6077 55.0179 93.6077 54.9037 93.722 54.7895C93.8362 54.6753 93.9504 54.4468 94.0647 54.3326C94.2931 54.2183 94.4074 54.1041 94.6358 54.1041C94.8643 53.9899 95.207 53.9899 95.5497 53.9899C95.8924 53.9899 96.235 53.9899 96.4635 54.1041C96.692 54.2183 96.9204 54.2183 97.1489 54.3326C97.3774 54.4468 97.4916 54.561 97.6058 54.561C97.7201 54.6753 97.8343 54.6753 97.9485 54.6753C98.0628 54.6753 98.177 54.6753 98.177 54.561C98.2912 54.4468 98.4055 54.4468 98.4055 54.3326L98.9766 53.4187C98.5197 53.076 97.9485 52.7333 97.3774 52.6191C96.692 52.3906 96.0066 52.3906 95.3212 52.3906C94.75 52.3906 94.1789 52.5049 93.6077 52.6191C93.1508 52.7333 92.6939 52.9618 92.3512 53.3045C92.0085 53.5329 91.78 53.8756 91.5516 54.2183C91.3231 54.561 91.3231 54.9037 91.3231 55.2464C91.3231 55.5891 91.4373 56.046 91.5516 56.3887C91.6658 56.7314 91.8943 56.9599 92.237 57.1883C92.4654 57.4168 92.8081 57.531 93.1508 57.6453C93.4935 57.7595 93.8362 57.8737 94.1789 57.988C94.5216 58.1022 94.8643 58.2164 95.207 58.2164C95.5497 58.3307 95.7781 58.4449 96.1208 58.5591C96.3493 58.6734 96.5777 58.7876 96.8062 59.016C97.0347 59.2445 97.0347 59.473 97.0347 59.7014C97.1489 60.0441 97.0347 60.5011 96.5777 60.7295Z" fill="#E4DEAE"/>
<path d="M32.4607 21H30V28.8534H32.4607V21Z" fill="#E4DEAE"/>
<path d="M61.781 21H59.3203V28.8534H61.781V21Z" fill="#E4DEAE"/>
<path d="M99.3705 28.8534H96.9098C96.648 23.9319 91.936 22.8325 89.5276 22.9895H89.3705H74.1873V28.8534H71.7266V21H88.8993C98.5852 21 99.3705 25.8691 99.3705 28.8534Z" fill="#E4DEAE"/>
<path d="M74.1873 37.9648H71.7266V48.279H74.1873V37.9648Z" fill="#E4DEAE"/>
<path d="M32.4607 37.9102H30V48.1719H32.4607V37.9102Z" fill="#E4DEAE"/>
<path d="M61.781 37.9102H59.3203V48.2243H61.781V37.9102Z" fill="#E4DEAE"/>
<path d="M99.3189 32.4141H30.209V34.5083H99.3189V32.4141Z" fill="#E4DEAE"/>
<path d="M85.6016 37.9102L96.0204 48.1719H99.3712L88.9523 37.9102H85.6016Z" fill="#E4DEAE"/>
</svg>
