<svg width="24" height="24" viewBox="0 0 24 24" fill="none" xmlns="http://www.w3.org/2000/svg">
<g clip-path="url(#clip0_3847_31912)">
<path fill-rule="evenodd" clip-rule="evenodd" d="M5 5.84375C4.53787 5.84375 4.15625 6.22537 4.15625 6.6875V16.8125C4.15625 17.2746 4.53787 17.6562 5 17.6562H18.5C18.9621 17.6562 19.3438 17.2746 19.3438 16.8125V6.6875C19.3438 6.22537 18.9621 5.84375 18.5 5.84375H5ZM2.46875 6.6875C2.46875 5.29338 3.60588 4.15625 5 4.15625H18.5C19.8941 4.15625 21.0312 5.29338 21.0312 6.6875V16.8125C21.0312 18.2066 19.8941 19.3438 18.5 19.3438H5C3.60588 19.3438 2.46875 18.2066 2.46875 16.8125V6.6875Z" fill="white"/>
<path fill-rule="evenodd" clip-rule="evenodd" d="M2.62135 6.20371C2.88857 5.82196 3.41468 5.72912 3.79643 5.99635L11.7501 11.5639L19.7037 5.99635C20.0855 5.72912 20.6116 5.82196 20.8788 6.20371C21.146 6.58547 21.0532 7.11157 20.6714 7.3788L12.2339 13.285C11.9434 13.4884 11.5567 13.4884 11.2662 13.285L2.82871 7.3788C2.44696 7.11157 2.35412 6.58547 2.62135 6.20371Z" fill="white"/>
</g>
<defs>
<clipPath id="clip0_3847_31912">
<rect width="20.25" height="20.25" fill="white" transform="translate(1.625 1.625)"/>
</clipPath>
</defs>
</svg>
