<svg width="18" height="18" viewBox="0 0 18 18" fill="none" xmlns="http://www.w3.org/2000/svg">
<path d="M7.0376 2.31617L7.6866 3.4791C8.2723 4.52858 8.0372 5.90532 7.1147 6.8278C7.1147 6.8278 5.99588 7.9468 8.0245 9.9755C10.0525 12.0035 11.1722 10.8853 11.1722 10.8853C12.0947 9.9628 13.4714 9.7277 14.5209 10.3134L15.6838 10.9624C17.2686 11.8468 17.4557 14.0692 16.0628 15.4622C15.2258 16.2992 14.2004 16.9505 13.0669 16.9934C11.1588 17.0658 7.9183 16.5829 4.6677 13.3323C1.41713 10.0817 0.934212 6.84122 1.00655 4.93309C1.04952 3.7996 1.7008 2.77423 2.53781 1.93723C3.93076 0.54428 6.15317 0.73144 7.0376 2.31617Z" stroke="#F6F6F6" stroke-width="1.8" stroke-linecap="round"/>
</svg>
