<svg width="20" height="20" viewBox="0 0 20 20" fill="none" xmlns="http://www.w3.org/2000/svg">
<path fill-rule="evenodd" clip-rule="evenodd" d="M3.17264 10.125C3.17264 6.04532 6.47987 2.73809 10.5595 2.73809C14.6392 2.73809 17.9464 6.04532 17.9464 10.125C17.9464 14.2046 14.6392 17.5119 10.5595 17.5119C9.1063 17.5119 7.7536 17.0932 6.61229 16.3701C6.39989 16.2355 6.13962 16.1995 5.89868 16.2714L3.39656 17.0182L4.33865 14.8138C4.45 14.5532 4.42734 14.2548 4.27793 14.0141C3.57733 12.8851 3.17264 11.5536 3.17264 10.125ZM10.5595 1C5.51994 1 1.43454 5.0854 1.43454 10.125C1.43454 11.7224 1.84572 13.226 2.56833 14.5334L1.06993 18.0394C0.937472 18.3494 0.996186 18.708 1.22058 18.9595C1.44498 19.2111 1.79459 19.3101 2.11759 19.2137L6.02779 18.0468C7.36355 18.8124 8.91155 19.25 10.5595 19.25C15.5991 19.25 19.6845 15.1646 19.6845 10.125C19.6845 5.0854 15.5991 1 10.5595 1ZM12.5518 12.0216L11.4097 12.8261C10.8748 12.5214 10.2834 12.0961 9.69021 11.5029C9.07353 10.8862 8.61635 10.2495 8.27924 9.66553L9.00505 9.04946C9.31652 8.7851 9.40177 8.33939 9.20989 7.97869L8.28508 6.2406C8.16055 6.00655 7.93601 5.84216 7.67528 5.79413C7.41455 5.74612 7.14617 5.81973 6.94643 5.99406L6.67224 6.23336C6.01286 6.80883 5.6229 7.75449 5.9461 8.71201C6.28118 9.70463 6.99628 11.2669 8.46122 12.7319C10.0373 14.308 11.6383 14.9286 12.5745 15.1697C13.3288 15.3639 14.0427 15.1036 14.5457 14.6937L15.0597 14.2749C15.2796 14.0958 15.3982 13.8205 15.3775 13.5377C15.3567 13.2548 15.1993 12.9998 14.9556 12.8546L13.4971 11.9855C13.2025 11.8101 12.8323 11.8242 12.5518 12.0216Z" fill="white"/>
</svg>
